<svg xmlns="http://www.w3.org/2000/svg" width="18" height="18" viewBox="0 0 18 18">
  <g id="Group_424" data-name="Group 424" transform="translate(-674 -850.999)">
    <rect id="Rectangle_180" data-name="Rectangle 180" width="18" height="18" transform="translate(674 850.999)" fill="none"/>
    <g id="next" transform="translate(688.695 756.366) rotate(90)">
      <g id="Group_382" data-name="Group 382" transform="translate(100.479 0.053)">
        <path id="Path_1221" data-name="Path 1221" d="M107.882,5.166,102.9.179a.614.614,0,0,0-.867,0l-.367.367a.614.614,0,0,0,0,.867L105.849,5.6l-4.192,4.192a.614.614,0,0,0,0,.867l.367.367a.614.614,0,0,0,.867,0l4.991-4.991a.619.619,0,0,0,0-.87Z" transform="translate(-101.478)" fill="#fff"/>
      </g>
    </g>
  </g>
</svg>
