<svg id="Group_196" data-name="Group 196" xmlns="http://www.w3.org/2000/svg" width="40" height="40" viewBox="0 0 40 40">
  <g id="Ellipse_3" data-name="Ellipse 3" fill="none" stroke="#0f142f" stroke-width="1">
    <circle cx="20" cy="20" r="20" stroke="none"/>
    <circle cx="20" cy="20" r="19.5" fill="none"/>
  </g>
  <g id="email" transform="translate(11.756 12.617)">
    <g id="Group_200" data-name="Group 200" transform="translate(0)">
      <g id="Group_199" data-name="Group 199" transform="translate(0 0)">
        <path id="Path_702" data-name="Path 702" d="M14.716,47.065H2.246A2.246,2.246,0,0,0,0,49.309v9.353a2.246,2.246,0,0,0,2.244,2.244h12.47a2.246,2.246,0,0,0,2.244-2.244V49.309A2.246,2.246,0,0,0,14.716,47.065Zm.874,11.6a.875.875,0,0,1-.874.874H2.246a.875.875,0,0,1-.874-.874V49.309a.875.875,0,0,1,.874-.874h12.47a.875.875,0,0,1,.874.874v9.353Z" transform="translate(-0.002 -47.065)" fill="#0f142f"/>
      </g>
    </g>
    <g id="Group_202" data-name="Group 202" transform="translate(0 1.559)">
      <g id="Group_201" data-name="Group 201" transform="translate(0)">
        <path id="Path_703" data-name="Path 703" d="M16.835,94.418a.685.685,0,0,0-.954-.168L8.48,99.43l-7.4-5.181a.685.685,0,0,0-.786,1.122l7.794,5.456a.685.685,0,0,0,.786,0l7.794-5.456A.685.685,0,0,0,16.835,94.418Z" transform="translate(-0.001 -94.125)" fill="#0f142f"/>
      </g>
    </g>
  </g>
</svg>
