<svg xmlns="http://www.w3.org/2000/svg" width="32" height="32" viewBox="0 0 32 32">
  <g id="Group_420" data-name="Group 420" transform="translate(-283 -20)">
    <rect id="Rectangle_93" data-name="Rectangle 93" width="32" height="32" rx="2" transform="translate(283 20)" fill="none"/>
    <g id="comment" transform="translate(286.376 27.333)">
      <path id="Path_1226" data-name="Path 1226" d="M21.239-1.332H3.385A3.389,3.389,0,0,0,0,2.053V12.979a3.389,3.389,0,0,0,3.373,3.385v4.958L10.5,16.365h10.74a3.389,3.389,0,0,0,3.385-3.385V2.053A3.389,3.389,0,0,0,21.239-1.332Zm1.943,14.311a1.945,1.945,0,0,1-1.943,1.943H10.046l-5.23,3.639V14.922H3.385a1.945,1.945,0,0,1-1.943-1.943V2.053A1.945,1.945,0,0,1,3.385.111H21.239a1.945,1.945,0,0,1,1.943,1.943Zm0,0" fill="#fff"/>
      <path id="Path_1227" data-name="Path 1227" d="M171.293,131.172h11.443v1.443H171.293Zm0,0" transform="translate(-164.702 -127.406)" fill="#fff"/>
      <path id="Path_1228" data-name="Path 1228" d="M171.293,211.172h11.443v1.443H171.293Zm0,0" transform="translate(-164.702 -204.328)" fill="#fff"/>
      <path id="Path_1229" data-name="Path 1229" d="M171.293,291.172h11.443v1.443H171.293Zm0,0" transform="translate(-164.702 -281.25)" fill="#fff"/>
    </g>
  </g>
</svg>
