<svg xmlns="http://www.w3.org/2000/svg" width="155.183" height="32" viewBox="0 0 155.183 32">
  <g id="Group_345" data-name="Group 345" transform="translate(-74.558 -492.612)">
    <path id="Path_1386" data-name="Path 1386" d="M1.32-9.4c0,6.788,4.4,10.152,9.6,10.152a8.313,8.313,0,0,0,6.421-2.935l-2.875-3.18a4.594,4.594,0,0,1-3.486,1.59C8.411-3.777,6.7-5.856,6.7-9.587c0-3.606,2.018-5.748,4.4-5.748a4.407,4.407,0,0,1,3.119,1.346l2.874-3.241a8.7,8.7,0,0,0-6.051-2.63C5.907-19.86,1.32-16.071,1.32-9.4Zm24.033-5.932h1.9c2.079,0,3.18.551,3.18,2.263s-1.1,2.63-3.18,2.63h-1.9ZM36.666.382,32.355-7.324a6.1,6.1,0,0,0,3.21-5.75c0-4.953-3.669-6.421-7.95-6.421H20.094V.382h5.259V-6.284h2.018L30.8.382Zm2.692,0H52.506v-4.4h-7.89V-7.569H51.1v-4.4H44.616V-15.09H52.2v-4.4H39.357Zm17,0h5.258v-6.3h2.446c4.158,0,7.95-2.11,7.95-6.971,0-5.014-3.669-6.6-7.95-6.6H56.358Zm5.258-10.459v-5.258h2.2c1.957,0,3.058.673,3.058,2.446s-.979,2.811-3.058,2.811ZM78.739.382H84V-15.09h5.259v-4.4H73.48v4.4h5.259Zm13.454,0h13.148v-4.4H97.452V-7.569h6.482v-4.4H97.452V-15.09h7.583v-4.4H92.193Zm17,0h12.781v-4.4h-7.522V-19.493h-5.258Z" transform="translate(107.766 512.472)" fill="#fff"/>
    <g id="Group_341" data-name="Group 341" transform="translate(74.558 493.13)">
      <path id="Path_1411" data-name="Path 1411" d="M-7676.05-3253.54h-23.507a2.446,2.446,0,0,1-2.443-2.443v-26.6a2.445,2.445,0,0,1,2.442-2.443h23.508a2.446,2.446,0,0,1,2.442,2.443v26.6a2.446,2.446,0,0,1-2.443,2.443Zm-11.46-26.637c-5.58,0-10.121,4.891-10.121,10.9s4.54,10.9,10.121,10.9c7.251,0,9.019-5.122,9.388-6.691a5.569,5.569,0,0,0,.145-1.016.654.654,0,0,0-.177-.523.652.652,0,0,0-.514-.2c-.317,0-.6.293-.694.729-.005.077-.017.153-.029.23-.421,2.755-3.417,5-6.679,5-3.479,0-6.309-2.547-6.309-5.679s2.83-5.677,6.309-5.677a6.439,6.439,0,0,1,2.925.657,1.579,1.579,0,0,0,.8.242.74.74,0,0,0,.579-.221.738.738,0,0,0,.207-.583v-4.867a3.211,3.211,0,0,0-.25-1.514,1.425,1.425,0,0,0-.757-.624,11.055,11.055,0,0,0-4.947-1.047Z" transform="translate(7702 3285.021)" fill="#fff"/>
    </g>
    <path id="Path_1410" data-name="Path 1410" d="M1.748-9.914H2.943V-11.7h.726c1.113,0,2.058-.549,2.058-1.783,0-1.275-.914-1.694-2.058-1.694H1.748Zm1.195-2.728v-1.59H3.6c.629,0,.968.2.968.75s-.315.839-.968.839Zm5.841.549.129-.484c.145-.525.291-1.138.411-1.694h.033c.145.549.282,1.168.428,1.694l.129.484Zm1.694,2.179h1.259l-1.653-5.261H8.661L7.009-9.914H8.22l.323-1.251h1.613Zm2.921-.66a2.916,2.916,0,0,0,1.953.758,1.751,1.751,0,0,0,1.977-1.63,1.451,1.451,0,0,0-1.041-1.428l-.67-.274c-.46-.185-.807-.3-.807-.621,0-.3.266-.476.67-.476a1.727,1.727,0,0,1,1.1.42l.6-.75a2.438,2.438,0,0,0-1.694-.694,1.7,1.7,0,0,0-1.872,1.565,1.53,1.53,0,0,0,1.067,1.436l.678.291c.46.194.758.3.758.629,0,.315-.242.508-.734.508a2.093,2.093,0,0,1-1.291-.549Zm5.778,0a2.916,2.916,0,0,0,1.953.758,1.751,1.751,0,0,0,1.977-1.63,1.451,1.451,0,0,0-1.041-1.428l-.67-.274c-.46-.185-.807-.3-.807-.621,0-.3.266-.476.67-.476a1.727,1.727,0,0,1,1.1.42l.6-.752a2.438,2.438,0,0,0-1.694-.694,1.7,1.7,0,0,0-1.872,1.565,1.53,1.53,0,0,0,1.067,1.436l.678.291c.46.194.758.3.758.629,0,.315-.242.508-.734.508a2.093,2.093,0,0,1-1.291-.549Zm6.262.66h1.194v-5.261H25.44Zm6.012.1c1.422,0,2.387-1.033,2.387-2.751s-.968-2.7-2.387-2.7-2.387.984-2.387,2.7.976,2.751,2.388,2.751Zm0-1.025c-.711,0-1.168-.67-1.168-1.727s.46-1.676,1.168-1.676,1.168.629,1.168,1.676-.45,1.727-1.168,1.727Zm4.825.928h1.138v-1.864c0-.621-.1-1.323-.152-1.9h.033l.517,1.146,1.371,2.622H40.4v-5.261h-1.13v1.856c0,.621.1,1.364.152,1.92h-.031l-.525-1.162L37.5-15.175H36.277Zm10.974,0h1.186v-4.261h1.445v-1H45.8v1h1.453Zm6.81.1c1.422,0,2.387-1.033,2.387-2.751s-.968-2.7-2.387-2.7-2.387.984-2.387,2.7.976,2.751,2.388,2.751Zm0-1.025c-.711,0-1.168-.67-1.168-1.727s.46-1.676,1.168-1.676,1.168.629,1.168,1.676-.449,1.727-1.167,1.727Zm7.956.928h1.194V-11.7h.726c1.113,0,2.058-.549,2.058-1.783,0-1.275-.914-1.694-2.058-1.694h-1.92Zm1.194-2.728v-1.59h.654c.629,0,.968.2.968.75s-.315.839-.968.839Zm6.334-1.59h.605c.621,0,.961.178.961.694s-.339.783-.961.783h-.605Zm2.986,4.317L71.347-12.02a1.549,1.549,0,0,0,.936-1.517c0-1.251-.92-1.638-2.032-1.638h-1.9v5.262h1.194v-1.9h.644l1.009,1.9Zm4.374.1c1.422,0,2.387-1.033,2.387-2.751s-.968-2.7-2.387-2.7-2.387.984-2.387,2.7.977,2.751,2.389,2.751Zm0-1.025c-.711,0-1.168-.67-1.168-1.727s.46-1.676,1.168-1.676,1.168.629,1.168,1.676-.449,1.727-1.167,1.727Zm4.825.928h1.194v-2.041h1.816v-1H82.925v-1.219h2.13v-1H81.731Zm5.673,0h3.381v-1H88.6v-1.21H90.39v-.993H88.6v-1.057H90.7v-1H87.4Zm5.52-.66a2.916,2.916,0,0,0,1.956.757,1.751,1.751,0,0,0,1.977-1.63,1.451,1.451,0,0,0-1.041-1.428l-.67-.274c-.46-.185-.807-.3-.807-.621,0-.3.266-.476.67-.476a1.727,1.727,0,0,1,1.1.42l.6-.75a2.438,2.438,0,0,0-1.694-.694,1.7,1.7,0,0,0-1.872,1.565A1.53,1.53,0,0,0,94.2-12.27l.678.291c.46.194.758.3.758.629,0,.315-.242.508-.734.508a2.093,2.093,0,0,1-1.3-.549Zm5.778,0a2.916,2.916,0,0,0,1.953.758,1.751,1.751,0,0,0,1.977-1.63,1.451,1.451,0,0,0-1.041-1.428l-.667-.275c-.46-.185-.807-.3-.807-.621,0-.3.266-.476.67-.476a1.727,1.727,0,0,1,1.1.42l.6-.75a2.438,2.438,0,0,0-1.694-.694,1.7,1.7,0,0,0-1.872,1.565,1.53,1.53,0,0,0,1.067,1.436l.678.291c.46.194.758.3.758.629,0,.315-.242.508-.734.508a2.093,2.093,0,0,1-1.291-.549Zm6.262.66h1.194v-5.261h-1.194Zm6.012.1c1.422,0,2.387-1.033,2.387-2.751s-.968-2.7-2.387-2.7-2.387.984-2.387,2.7.977,2.751,2.389,2.751Zm0-1.025c-.711,0-1.168-.67-1.168-1.727s.46-1.676,1.168-1.676,1.168.629,1.168,1.676-.449,1.727-1.167,1.727Zm4.825.928h1.138v-1.864c0-.621-.1-1.323-.152-1.9h.033l.517,1.146,1.371,2.622h1.219v-5.261H118.8v1.856c0,.621.1,1.364.152,1.92h-.033l-.525-1.162-1.371-2.614H115.8Z" transform="translate(109.518 533.35)" fill="#fff"/>
  </g>
</svg>
