<svg id="Creptel-Logo" xmlns="http://www.w3.org/2000/svg" width="155" height="32" viewBox="0 0 155 32">
  <path id="Path_1386" data-name="Path 1386" d="M1.32-9.4C1.32-2.615,5.718.749,10.909.749a8.3,8.3,0,0,0,6.413-2.935L14.45-5.367a4.586,4.586,0,0,1-3.482,1.59c-2.566,0-4.276-2.079-4.276-5.81,0-3.606,2.016-5.748,4.4-5.748A4.4,4.4,0,0,1,14.2-13.989l2.871-3.241a8.69,8.69,0,0,0-6.044-2.63C5.9-19.86,1.32-16.071,1.32-9.4Zm24-5.932h1.893c2.077,0,3.176.551,3.176,2.263s-1.1,2.63-3.176,2.63H25.325ZM36.624.382,32.319-7.324a6.1,6.1,0,0,0,3.206-5.75c0-4.953-3.665-6.421-7.94-6.421H20.072V.382h5.253V-6.284H27.34L30.761.382Zm2.689,0H52.446v-4.4h-7.88V-7.569H51.04v-4.4H44.565V-15.09h7.574v-4.4H39.312Zm16.98,0h5.252v-6.3h2.443c4.154,0,7.94-2.11,7.94-6.971,0-5.014-3.665-6.6-7.94-6.6h-7.7Zm5.252-10.459v-5.258h2.2c1.955,0,3.054.672,3.054,2.446s-.978,2.811-3.054,2.811ZM78.648.382H83.9V-15.09h5.253v-4.4H73.395v4.4h5.253Zm13.438,0h13.132v-4.4H97.339V-7.569h6.475v-4.4H97.339V-15.09h7.574v-4.4H92.086Zm16.98,0h12.766v-4.4h-7.513V-19.493h-5.251Z" transform="translate(33.168 19.86)" fill="#fff"/>
  <g id="Group_341" data-name="Group 341" transform="translate(0 0.518)">
    <path id="Path_1411" data-name="Path 1411" d="M-7676.08-3253.54h-23.48a2.445,2.445,0,0,1-2.44-2.443v-26.6a2.443,2.443,0,0,1,2.439-2.443h23.48a2.444,2.444,0,0,1,2.439,2.442v26.6a2.444,2.444,0,0,1-2.439,2.443Zm-11.447-26.637c-5.574,0-10.109,4.891-10.109,10.9s4.535,10.9,10.109,10.9c7.243,0,9.008-5.122,9.376-6.691a5.569,5.569,0,0,0,.145-1.016.654.654,0,0,0-.177-.523.651.651,0,0,0-.513-.2c-.316,0-.595.293-.693.729,0,.077-.017.153-.028.229-.421,2.755-3.414,5-6.671,5-3.475,0-6.3-2.547-6.3-5.679s2.827-5.677,6.3-5.677a6.426,6.426,0,0,1,2.921.657,1.579,1.579,0,0,0,.8.242.741.741,0,0,0,.578-.221.74.74,0,0,0,.206-.583v-4.867a3.218,3.218,0,0,0-.25-1.514,1.421,1.421,0,0,0-.756-.624,11.03,11.03,0,0,0-4.941-1.047Z" transform="translate(7702 3285.021)" fill="#fff"/>
  </g>
  <path id="Path_1410" data-name="Path 1410" d="M1.748-9.914H2.941V-11.7h.725c1.112,0,2.055-.549,2.055-1.783,0-1.275-.913-1.694-2.055-1.694H1.748Zm1.193-2.728v-1.59h.652c.629,0,.967.2.967.75s-.315.839-.967.839Zm5.834.549.129-.484c.145-.525.29-1.138.411-1.694h.032c.145.549.282,1.168.427,1.694l.129.484Zm1.692,2.179h1.257l-1.651-5.261H8.653L7-9.914H8.212l.322-1.251h1.611Zm2.918-.66a2.91,2.91,0,0,0,1.951.758,1.75,1.75,0,0,0,1.975-1.63,1.451,1.451,0,0,0-1.04-1.428l-.669-.274c-.46-.185-.806-.3-.806-.621,0-.3.266-.476.669-.476a1.724,1.724,0,0,1,1.1.42l.6-.75a2.434,2.434,0,0,0-1.692-.694,1.7,1.7,0,0,0-1.87,1.565,1.53,1.53,0,0,0,1.065,1.436l.677.291c.46.194.757.3.757.629,0,.315-.242.508-.734.508a2.089,2.089,0,0,1-1.29-.549Zm5.771,0a2.91,2.91,0,0,0,1.951.758,1.75,1.75,0,0,0,1.975-1.63,1.451,1.451,0,0,0-1.04-1.428l-.669-.274c-.46-.185-.806-.3-.806-.621,0-.3.266-.476.669-.476a1.724,1.724,0,0,1,1.1.42l.6-.752a2.434,2.434,0,0,0-1.692-.694,1.7,1.7,0,0,0-1.87,1.565,1.53,1.53,0,0,0,1.065,1.436l.677.291c.46.194.757.3.757.629,0,.315-.242.508-.734.508a2.089,2.089,0,0,1-1.29-.549Zm6.254.66H26.6v-5.261H25.412Zm6,.1c1.421,0,2.384-1.033,2.384-2.751s-.967-2.7-2.384-2.7-2.384.984-2.384,2.7.975,2.751,2.385,2.751Zm0-1.025c-.71,0-1.167-.67-1.167-1.727s.46-1.676,1.167-1.676,1.167.629,1.167,1.676-.449,1.727-1.166,1.727Zm4.82.928h1.136v-1.864c0-.621-.1-1.323-.152-1.9h.032l.516,1.146,1.37,2.622h1.218v-5.261H39.227v1.856c0,.621.1,1.364.152,1.92h-.031l-.524-1.162-1.37-2.614H36.236Zm10.961,0h1.185v-4.261h1.443v-1H45.747v1H47.2Zm6.8.1c1.421,0,2.384-1.033,2.384-2.751s-.967-2.7-2.384-2.7-2.384.984-2.384,2.7S52.59-9.817,54-9.817Zm0-1.025c-.71,0-1.167-.67-1.167-1.727s.46-1.676,1.167-1.676,1.167.629,1.167,1.676S54.718-10.842,54-10.842Zm7.947.928h1.193V-11.7h.725c1.112,0,2.055-.549,2.055-1.783,0-1.275-.913-1.694-2.055-1.694H61.946Zm1.193-2.728v-1.59h.653c.629,0,.967.2.967.75s-.315.839-.967.839Zm6.327-1.59h.6c.62,0,.959.178.959.694s-.338.783-.959.783h-.6Zm2.982,4.317L71.265-12.02a1.549,1.549,0,0,0,.935-1.517c0-1.251-.919-1.638-2.029-1.638H68.277v5.262H69.47v-1.9h.643l1.008,1.9Zm4.369.1c1.421,0,2.384-1.033,2.384-2.751s-.967-2.7-2.384-2.7-2.384.984-2.384,2.7.976,2.751,2.386,2.751Zm0-1.025c-.71,0-1.167-.67-1.167-1.727s.46-1.676,1.167-1.676,1.167.629,1.167,1.676-.448,1.727-1.165,1.727Zm4.82.928h1.193v-2.041h1.814v-1H82.829v-1.219h2.128v-1H81.636Zm5.666,0H90.68v-1H88.5v-1.21h1.789v-.992H88.5v-1.057h2.1v-1H87.3Zm5.513-.66a2.91,2.91,0,0,0,1.953.757,1.75,1.75,0,0,0,1.975-1.63,1.451,1.451,0,0,0-1.04-1.428l-.669-.274c-.46-.185-.806-.3-.806-.621,0-.3.266-.476.669-.476a1.724,1.724,0,0,1,1.1.42l.6-.75a2.434,2.434,0,0,0-1.692-.694,1.7,1.7,0,0,0-1.87,1.565,1.53,1.53,0,0,0,1.065,1.436l.677.291c.46.194.757.3.757.629,0,.315-.242.508-.734.508A2.089,2.089,0,0,1,93.5-11.39Zm5.771,0a2.91,2.91,0,0,0,1.951.758,1.75,1.75,0,0,0,1.975-1.63,1.451,1.451,0,0,0-1.04-1.428l-.666-.275c-.46-.185-.806-.3-.806-.621,0-.3.266-.476.669-.476a1.724,1.724,0,0,1,1.1.42l.6-.75a2.434,2.434,0,0,0-1.692-.694,1.7,1.7,0,0,0-1.87,1.565,1.53,1.53,0,0,0,1.065,1.436l.677.291c.46.194.757.3.757.629,0,.315-.242.508-.734.508a2.089,2.089,0,0,1-1.29-.549Zm6.254.66h1.193v-5.261h-1.193Zm6,.1c1.421,0,2.384-1.033,2.384-2.751s-.967-2.7-2.384-2.7-2.384.984-2.384,2.7.976,2.751,2.386,2.751Zm0-1.025c-.71,0-1.167-.67-1.167-1.727s.46-1.676,1.167-1.676,1.167.629,1.167,1.676-.448,1.727-1.165,1.727Zm4.82.928H116.8v-1.864c0-.621-.1-1.323-.152-1.9h.032l.516,1.146,1.37,2.622h1.218v-5.261h-1.128v1.856c0,.621.1,1.364.152,1.92h-.032l-.524-1.162-1.37-2.614h-1.218Z" transform="translate(34.917 40.739)" fill="#fff"/>
</svg>
